<mxfile host="app.diagrams.net" modified="2024-01-11T07:59:01.156Z" agent="Mozilla/5.0 (Windows NT 10.0; Win64; x64) AppleWebKit/537.36 (KHTML, like Gecko) Chrome/120.0.0.0 Safari/537.36 Edg/120.0.0.0" etag="MrTC2HusZr9BSaK6rDqU" version="22.1.18" type="device">
  <diagram name="Page-1" id="TO6kB4z5MBMpsq3OqiZG">
    <mxGraphModel dx="978" dy="507" grid="1" gridSize="10" guides="1" tooltips="1" connect="1" arrows="1" fold="1" page="1" pageScale="1" pageWidth="850" pageHeight="1100" math="0" shadow="0">
      <root>
        <mxCell id="0" />
        <mxCell id="1" parent="0" />
        <mxCell id="ds1MS7w25QjL1ORueq1j-7" style="edgeStyle=orthogonalEdgeStyle;rounded=0;orthogonalLoop=1;jettySize=auto;html=1;curved=0;" edge="1" parent="1" source="ds1MS7w25QjL1ORueq1j-1" target="ds1MS7w25QjL1ORueq1j-2">
          <mxGeometry relative="1" as="geometry">
            <Array as="points">
              <mxPoint x="600" y="260" />
              <mxPoint x="600" y="260" />
            </Array>
          </mxGeometry>
        </mxCell>
        <mxCell id="ds1MS7w25QjL1ORueq1j-1" value="Frontend" style="shape=umlLifeline;perimeter=lifelinePerimeter;whiteSpace=wrap;html=1;container=1;dropTarget=0;collapsible=0;recursiveResize=0;outlineConnect=0;portConstraint=eastwest;newEdgeStyle={&quot;curved&quot;:0,&quot;rounded&quot;:0};" vertex="1" parent="1">
          <mxGeometry x="370" y="110" width="100" height="580" as="geometry" />
        </mxCell>
        <mxCell id="ds1MS7w25QjL1ORueq1j-14" style="edgeStyle=orthogonalEdgeStyle;rounded=0;orthogonalLoop=1;jettySize=auto;html=1;curved=0;" edge="1" parent="1" source="ds1MS7w25QjL1ORueq1j-2" target="ds1MS7w25QjL1ORueq1j-3">
          <mxGeometry relative="1" as="geometry">
            <Array as="points">
              <mxPoint x="730" y="400" />
              <mxPoint x="730" y="400" />
            </Array>
          </mxGeometry>
        </mxCell>
        <mxCell id="ds1MS7w25QjL1ORueq1j-2" value="Backend" style="shape=umlLifeline;perimeter=lifelinePerimeter;whiteSpace=wrap;html=1;container=1;dropTarget=0;collapsible=0;recursiveResize=0;outlineConnect=0;portConstraint=eastwest;newEdgeStyle={&quot;curved&quot;:0,&quot;rounded&quot;:0};" vertex="1" parent="1">
          <mxGeometry x="610" y="110" width="100" height="530" as="geometry" />
        </mxCell>
        <mxCell id="ds1MS7w25QjL1ORueq1j-3" value="Database" style="shape=umlLifeline;perimeter=lifelinePerimeter;whiteSpace=wrap;html=1;container=1;dropTarget=0;collapsible=0;recursiveResize=0;outlineConnect=0;portConstraint=eastwest;newEdgeStyle={&quot;curved&quot;:0,&quot;rounded&quot;:0};" vertex="1" parent="1">
          <mxGeometry x="820" y="110" width="100" height="510" as="geometry" />
        </mxCell>
        <mxCell id="ds1MS7w25QjL1ORueq1j-4" value="User" style="shape=umlActor;verticalLabelPosition=bottom;verticalAlign=top;html=1;" vertex="1" parent="1">
          <mxGeometry x="120" y="210" width="30" height="60" as="geometry" />
        </mxCell>
        <mxCell id="ds1MS7w25QjL1ORueq1j-6" style="rounded=0;orthogonalLoop=1;jettySize=auto;html=1;" edge="1" parent="1" source="ds1MS7w25QjL1ORueq1j-5" target="ds1MS7w25QjL1ORueq1j-1">
          <mxGeometry relative="1" as="geometry" />
        </mxCell>
        <mxCell id="ds1MS7w25QjL1ORueq1j-5" value="Email&lt;br&gt;Password" style="html=1;whiteSpace=wrap;" vertex="1" parent="1">
          <mxGeometry x="210" y="200" width="110" height="50" as="geometry" />
        </mxCell>
        <mxCell id="ds1MS7w25QjL1ORueq1j-8" value="Email &amp;amp;&lt;br&gt;Timely Encrypted&lt;br&gt;Password" style="html=1;whiteSpace=wrap;" vertex="1" parent="1">
          <mxGeometry x="490" y="200" width="110" height="50" as="geometry" />
        </mxCell>
        <mxCell id="ds1MS7w25QjL1ORueq1j-11" style="edgeStyle=orthogonalEdgeStyle;rounded=0;orthogonalLoop=1;jettySize=auto;html=1;curved=0;" edge="1" parent="1">
          <mxGeometry relative="1" as="geometry">
            <mxPoint x="659.5" y="300" as="sourcePoint" />
            <mxPoint x="659.5" y="320" as="targetPoint" />
            <Array as="points">
              <mxPoint x="620" y="290" />
            </Array>
          </mxGeometry>
        </mxCell>
        <mxCell id="ds1MS7w25QjL1ORueq1j-13" value="Timely Decrypt Password" style="html=1;whiteSpace=wrap;" vertex="1" parent="1">
          <mxGeometry x="490" y="290" width="110" height="50" as="geometry" />
        </mxCell>
        <mxCell id="ds1MS7w25QjL1ORueq1j-15" style="edgeStyle=orthogonalEdgeStyle;rounded=0;orthogonalLoop=1;jettySize=auto;html=1;curved=0;" edge="1" parent="1">
          <mxGeometry relative="1" as="geometry">
            <mxPoint x="658.5" y="348" as="sourcePoint" />
            <mxPoint x="658.5" y="368" as="targetPoint" />
            <Array as="points">
              <mxPoint x="619" y="338" />
            </Array>
          </mxGeometry>
        </mxCell>
        <mxCell id="ds1MS7w25QjL1ORueq1j-16" value="Encrypt password&lt;br&gt;(SHA254)" style="html=1;whiteSpace=wrap;" vertex="1" parent="1">
          <mxGeometry x="490" y="350" width="110" height="50" as="geometry" />
        </mxCell>
        <mxCell id="ds1MS7w25QjL1ORueq1j-17" value="Verify&amp;nbsp; User login" style="html=1;whiteSpace=wrap;" vertex="1" parent="1">
          <mxGeometry x="720" y="340" width="110" height="50" as="geometry" />
        </mxCell>
        <mxCell id="ds1MS7w25QjL1ORueq1j-18" style="edgeStyle=orthogonalEdgeStyle;rounded=0;orthogonalLoop=1;jettySize=auto;html=1;curved=0;" edge="1" parent="1">
          <mxGeometry relative="1" as="geometry">
            <mxPoint x="659.5" y="530" as="sourcePoint" />
            <mxPoint x="419.5" y="530" as="targetPoint" />
            <Array as="points">
              <mxPoint x="590" y="530" />
              <mxPoint x="590" y="530" />
            </Array>
          </mxGeometry>
        </mxCell>
        <mxCell id="ds1MS7w25QjL1ORueq1j-19" style="edgeStyle=orthogonalEdgeStyle;rounded=0;orthogonalLoop=1;jettySize=auto;html=1;curved=0;" edge="1" parent="1" source="ds1MS7w25QjL1ORueq1j-3">
          <mxGeometry relative="1" as="geometry">
            <mxPoint x="860" y="440" as="sourcePoint" />
            <mxPoint x="655" y="440" as="targetPoint" />
            <Array as="points">
              <mxPoint x="738" y="440" />
              <mxPoint x="738" y="441" />
            </Array>
          </mxGeometry>
        </mxCell>
        <mxCell id="ds1MS7w25QjL1ORueq1j-20" value="User Details" style="html=1;whiteSpace=wrap;" vertex="1" parent="1">
          <mxGeometry x="720" y="410" width="110" height="20" as="geometry" />
        </mxCell>
        <mxCell id="ds1MS7w25QjL1ORueq1j-22" style="edgeStyle=orthogonalEdgeStyle;rounded=0;orthogonalLoop=1;jettySize=auto;html=1;curved=0;" edge="1" parent="1">
          <mxGeometry relative="1" as="geometry">
            <mxPoint x="660.5" y="478" as="sourcePoint" />
            <mxPoint x="660.5" y="498" as="targetPoint" />
            <Array as="points">
              <mxPoint x="621" y="468" />
            </Array>
          </mxGeometry>
        </mxCell>
        <mxCell id="ds1MS7w25QjL1ORueq1j-23" value="Generate Token" style="html=1;whiteSpace=wrap;" vertex="1" parent="1">
          <mxGeometry x="490" y="470" width="110" height="50" as="geometry" />
        </mxCell>
        <mxCell id="ds1MS7w25QjL1ORueq1j-24" value="Note: Registration and Login Password should use the same encryption (SHA254)" style="html=1;whiteSpace=wrap;" vertex="1" parent="1">
          <mxGeometry x="100" y="30" width="220" height="50" as="geometry" />
        </mxCell>
        <mxCell id="ds1MS7w25QjL1ORueq1j-25" style="edgeStyle=orthogonalEdgeStyle;rounded=0;orthogonalLoop=1;jettySize=auto;html=1;curved=0;" edge="1" parent="1">
          <mxGeometry relative="1" as="geometry">
            <mxPoint x="420" y="610" as="sourcePoint" />
            <mxPoint x="660" y="610" as="targetPoint" />
            <Array as="points">
              <mxPoint x="600" y="610" />
              <mxPoint x="600" y="610" />
            </Array>
          </mxGeometry>
        </mxCell>
        <mxCell id="ds1MS7w25QjL1ORueq1j-26" value="Auth Token" style="html=1;whiteSpace=wrap;" vertex="1" parent="1">
          <mxGeometry x="490" y="550" width="110" height="50" as="geometry" />
        </mxCell>
      </root>
    </mxGraphModel>
  </diagram>
</mxfile>
